<svg xmlns="http://www.w3.org/2000/svg" xmlns:xlink="http://www.w3.org/1999/xlink" width="53" height="53" viewBox="0 0 53 53">
  <defs>
    <clipPath id="clip-path">
      <rect id="Rectangle_17" data-name="Rectangle 17" width="53" height="53" fill="none"/>
    </clipPath>
  </defs>
  <g id="Group_15" data-name="Group 15" transform="translate(0.467 0.467)">
    <g id="Group_14" data-name="Group 14" transform="translate(-0.467 -0.467)" clip-path="url(#clip-path)">
      <path id="Path_9" data-name="Path 9" d="M26.005,0A26.005,26.005,0,1,1,0,26.005,26.005,26.005,0,0,1,26.005,0" transform="translate(0.495 0.495)" fill="#ee4b68"/>
      <path id="Path_10" data-name="Path 10" d="M52.011,26.005A26.033,26.033,0,0,1,38.846,48.638a24.446,24.446,0,0,1-3.454,1.625c-.284.122-.569.2-.853.325a25.754,25.754,0,0,1-8.533,1.422c-.488,0-.975,0-1.463-.041-.163,0-.325-.041-.488-.041a6.086,6.086,0,0,1-.894-.081H23.12c-.447-.041-.894-.122-1.3-.163a27.01,27.01,0,0,1-4.063-1.016c-.366-.122-.731-.244-1.1-.406-.041,0-.081-.041-.122-.041-.284-.122-.528-.2-.813-.325-.569-.244-1.138-.528-1.707-.813A26.079,26.079,0,0,1,2.357,36.814,25.329,25.329,0,0,1,0,26.005a26.005,26.005,0,1,1,52.011,0Z" transform="translate(0.495 0.495)" fill="#f34982"/>
      <path id="Path_11" data-name="Path 11" d="M135.519,77.625c-10.93,8.736-19.829,8.736-30.719,0,4.023-7.111,4.348-14.953,5.282-23.445.447-5.526,4.429-8.98,9.955-8.98h.2c5.567.041,9.508,3.454,9.955,8.98.975,8.492,1.3,16.335,5.323,23.445" transform="translate(-93.659 -40.114)" fill="#343843"/>
      <path id="Path_12" data-name="Path 12" d="M155.679,158.246c.919-.209,1.983,1.022,2.377,2.751s-.032,3.3-.951,3.509-1.983-1.022-2.377-2.751.032-3.3.951-3.509" transform="translate(-138.383 -141.655)" fill="#f8cfa3"/>
      <path id="Path_13" data-name="Path 13" d="M163.2,169.717c-.406,0-1.178-.813-1.5-2.235-.325-1.463.041-2.6.447-2.682h.041c.406,0,1.178.813,1.5,2.235a4.741,4.741,0,0,1,.041,1.991c-.122.366-.284.65-.447.691Z" transform="translate(-144.662 -147.564)" fill="#f1b97c"/>
      <path id="Path_14" data-name="Path 14" d="M321.936,160.653c.393-1.729,1.458-2.96,2.377-2.751s1.345,1.78.951,3.509-1.458,2.96-2.377,2.751-1.345-1.78-.951-3.509" transform="translate(-288.606 -141.346)" fill="#f8cfa3"/>
      <path id="Path_15" data-name="Path 15" d="M329.172,169.67h-.041c-.163-.041-.366-.325-.447-.691a4.154,4.154,0,0,1,.041-1.991c.325-1.463,1.178-2.316,1.585-2.235s.772,1.219.447,2.682C330.351,168.9,329.579,169.67,329.172,169.67Z" transform="translate(-294.708 -147.517)" fill="#f1b97c"/>
      <path id="Path_16" data-name="Path 16" d="M201.6,283.929l.569-2.56.935-.488,8.086-.081,1.788,2.4-.447.731Z" transform="translate(-180.626 -251.781)" fill="#e7e7e8"/>
      <path id="Path_17" data-name="Path 17" d="M114.164,264.322v3.86A25.957,25.957,0,0,1,78,268.223v-3.86c.488-5.364,3.779-6.1,5.282-6.136a12.547,12.547,0,0,0,2.479-.325c6.379-1.585,6.42-5.445,6.42-5.445V248.8h7.8v3.657s.041,3.86,6.42,5.445a12.547,12.547,0,0,0,2.479.325c1.5.041,4.795.772,5.282,6.1" transform="translate(-69.582 -223.031)" fill="#f1b97c"/>
      <path id="Path_18" data-name="Path 18" d="M114.164,320.024v3.86A25.956,25.956,0,0,1,78,323.925v-3.86c.488-5.364,3.779-6.1,5.282-6.136a12.549,12.549,0,0,0,2.479-.325,9.973,9.973,0,0,0,5.2-2.8l1.625,3.413,3.494,8.492,4.063-9.305,1.382-2.275a10.364,10.364,0,0,0,4.917,2.479,12.549,12.549,0,0,0,2.479.325c1.463.041,4.754.772,5.242,6.1" transform="translate(-69.582 -278.733)" fill="#fac824"/>
      <path id="Path_19" data-name="Path 19" d="M188.429,95.786c0,5.2-3.86,11.459-8.614,11.459s-8.614-6.258-8.614-11.459,3.86-9.386,8.614-9.386,8.614,4.185,8.614,9.386" transform="translate(-153.314 -77.129)" fill="#f8cfa3"/>
      <path id="Path_20" data-name="Path 20" d="M217.752,319.763c-.935,5.811-4.429,11.743-4.835,12.434,0,.041-.041.041-.081,0-.406-.691-3.9-6.623-4.835-12.434l.528-.163.772.609.691,1.016s1.5,4.429,2.844,7.68c1.382-3.251,2.844-7.68,2.844-7.68l.691-1.016.772-.609Z" transform="translate(-186.376 -286.639)" fill="#e7e7e8"/>
      <path id="Path_21" data-name="Path 21" d="M289.411,284.692l.406,3.129a27.3,27.3,0,0,0-2.844-3.535,2.178,2.178,0,0,0-3.332.2.04.04,0,0,1-.041.041,6.723,6.723,0,0,1,1.3-2.072,1.935,1.935,0,0,0,.488-1.056,2.136,2.136,0,0,0-.772-2.072V278.8a5.579,5.579,0,0,1,2.194,1.178,7.448,7.448,0,0,1,2.6,4.714" transform="translate(-254.296 -249.984)" fill="#fcfcfc"/>
      <path id="Path_22" data-name="Path 22" d="M173.017,284.529a.04.04,0,0,0-.041-.041,2.178,2.178,0,0,0-3.332-.2,36.664,36.664,0,0,0-2.844,3.535l.406-3.129a7.619,7.619,0,0,1,2.519-4.714,5.324,5.324,0,0,1,2.194-1.178v.528a2.225,2.225,0,0,0-.772,2.072,2.771,2.771,0,0,0,.488,1.056A6.336,6.336,0,0,1,173.017,284.529Z" transform="translate(-149.361 -249.984)" fill="#fcfcfc"/>
      <path id="Path_23" data-name="Path 23" d="M173.007,60.038l.244-.244c-.163-1.422-.284-2.844-.447-4.267-.406-.528-.813-1.016-1.1-1.463l-1.3-2.275-3.941-4.835L162.93,44.8h-.488c-5.526.041-9.508,3.454-9.955,8.98-.163,1.585-.325,3.169-.488,4.713a14.518,14.518,0,0,0,7.355-8.777A14.478,14.478,0,0,0,173.007,60.038Z" transform="translate(-136.065 -39.754)" fill="#343843"/>
      <path id="Path_24" data-name="Path 24" d="M246.52,86.18a12.455,12.455,0,0,0,3.494,1.138,22.4,22.4,0,0,1-3.535-1.5,13.271,13.271,0,0,0,3.251,1.056,17.405,17.405,0,0,1-3.291-1.422,9.767,9.767,0,0,0,3.007.935,17.749,17.749,0,0,1-3.048-1.3,8.691,8.691,0,0,0,2.763.853,15.477,15.477,0,0,1-3.251-1.5A9.872,9.872,0,0,0,249.2,85.57a14.918,14.918,0,0,1-3.129-1.463,10.45,10.45,0,0,0,3.129,1.1,14.042,14.042,0,0,1-2.966-1.382,10.069,10.069,0,0,0,2.966,1.016,14.059,14.059,0,0,1-2.844-1.341,8.671,8.671,0,0,0,2.844.975,11.743,11.743,0,0,1-6.867-6.054c-.041-.122-.122-.2-.122-.284a.314.314,0,0,1-.041-.122.314.314,0,0,0,.041.122,8.135,8.135,0,0,0,1.26,2.722,11.249,11.249,0,0,1-1.625-2.8,7.94,7.94,0,0,0,1.341,3.007,12.922,12.922,0,0,1-1.747-3.007,9.737,9.737,0,0,0,1.422,3.169,14.519,14.519,0,0,1-1.829-3.129,9.169,9.169,0,0,0,1.5,3.332,14.224,14.224,0,0,1-1.91-3.291,8.474,8.474,0,0,0,1.016,2.56,12.5,12.5,0,0,1-1.463-2.8,10.388,10.388,0,0,0,1.1,2.763,15.736,15.736,0,0,1-1.585-3.007,11.589,11.589,0,0,0,1.219,3.007,16.417,16.417,0,0,1-1.666-3.251,11.188,11.188,0,0,0,1.341,3.251A17.441,17.441,0,0,1,238.8,77.2a14.609,14.609,0,0,0,11.5,10.565A17.156,17.156,0,0,1,246.52,86.18Z" transform="translate(-214.047 -68.863)" fill="#454652"/>
      <path id="Path_25" data-name="Path 25" d="M165.67,90.56a7.883,7.883,0,0,0,.61-2.519,11.517,11.517,0,0,1-.853,2.438,7.126,7.126,0,0,0,.569-2.4,10.4,10.4,0,0,1-.813,2.316,7.151,7.151,0,0,0,.528-2.316c-.731,2.519-1.829,4.754-4.51,6.014a5.743,5.743,0,0,0,2.113-1.219,9.908,9.908,0,0,1-2.072,1.5,6.355,6.355,0,0,0,2.235-1.3,8.824,8.824,0,0,1-2.194,1.585,6.215,6.215,0,0,0,2.357-1.382,9.36,9.36,0,0,1-2.316,1.666,6.95,6.95,0,0,0,2.479-1.463A7.756,7.756,0,0,0,166.523,88,8.23,8.23,0,0,1,165.67,90.56Z" transform="translate(-144.33 -78.566)" fill="#454652"/>
    </g>
  </g>
</svg>
