<svg id="Group_21" data-name="Group 21" xmlns="http://www.w3.org/2000/svg" xmlns:xlink="http://www.w3.org/1999/xlink" width="25" height="28" viewBox="0 0 25 28">
  <defs>
    <clipPath id="clip-path">
      <rect id="Rectangle_20" data-name="Rectangle 20" width="25" height="28" fill="#bac0c8"/>
    </clipPath>
  </defs>
  <g id="Group_20" data-name="Group 20" clip-path="url(#clip-path)">
    <path id="Path_30" data-name="Path 30" d="M16.225,27.814H9.271V20.861h6.954Zm2.318-6.954v6.954H19.7A5.738,5.738,0,0,0,25.5,22.02V20.861ZM0,20.861V22.02a5.738,5.738,0,0,0,5.795,5.795H6.954V20.861ZM20.861,3.593V1.159a1.159,1.159,0,1,0-2.318,0V3.477H8.112V1.159A1.246,1.246,0,0,0,6.954,0,1.246,1.246,0,0,0,5.795,1.159V3.477A5.738,5.738,0,0,0,0,9.271V10.43H25.5V9.271a5.829,5.829,0,0,0-4.636-5.679m-2.318,14.95H25.5V12.748H18.543Zm-9.271,0h6.954V12.748H9.271ZM0,18.543H6.954V12.748H0Z" fill="#bac0c8"/>
  </g>
</svg>
