<svg id="Group_13" data-name="Group 13" xmlns="http://www.w3.org/2000/svg" xmlns:xlink="http://www.w3.org/1999/xlink" width="23.909" height="24.552" viewBox="0 0 23.909 24.552">
  <defs>
    <clipPath id="clip-path">
      <rect id="Rectangle_16" data-name="Rectangle 16" width="23.909" height="24.552" fill="#bac0c8"/>
    </clipPath>
  </defs>
  <g id="Group_12" data-name="Group 12" clip-path="url(#clip-path)">
    <path id="Path_8" data-name="Path 8" d="M23.5,14.967,21.239,13.2a8.886,8.886,0,0,0,.053-.927,8.617,8.617,0,0,0-.053-.927L23.5,9.583a1.107,1.107,0,0,0,.267-1.41l-2.347-4.06a1.088,1.088,0,0,0-1.358-.488L17.4,4.694a9.13,9.13,0,0,0-1.6-.928L15.393.941A1.086,1.086,0,0,0,14.309,0H9.6A1.084,1.084,0,0,0,8.52.933L8.114,3.768a9.412,9.412,0,0,0-1.6.928L3.848,3.624A1.11,1.11,0,0,0,2.5,4.1L.151,8.169A1.1,1.1,0,0,0,.417,9.586L2.674,11.35a8.095,8.095,0,0,0,0,1.853L.415,14.969a1.107,1.107,0,0,0-.266,1.41L2.5,20.439a1.086,1.086,0,0,0,1.358.488l2.663-1.069a9.211,9.211,0,0,0,1.6.928l.405,2.824a1.086,1.086,0,0,0,1.084.943H14.31a1.085,1.085,0,0,0,1.083-.933l.406-2.834a9.456,9.456,0,0,0,1.6-.929l2.67,1.072a1.1,1.1,0,0,0,.4.076,1.08,1.08,0,0,0,.946-.554l2.357-4.082a1.1,1.1,0,0,0-.274-1.4m-11.54,1.4a4.092,4.092,0,1,1,4.092-4.092,4.1,4.1,0,0,1-4.092,4.092" transform="translate(0)" fill="#bac0c8"/>
  </g>
</svg>
