<svg id="Group_19" data-name="Group 19" xmlns="http://www.w3.org/2000/svg" xmlns:xlink="http://www.w3.org/1999/xlink" width="24.496" height="14.392" viewBox="0 0 24.496 14.392">
  <defs>
    <clipPath id="clip-path">
      <rect id="Rectangle_19" data-name="Rectangle 19" width="24.496" height="14.392" fill="#fff"/>
    </clipPath>
  </defs>
  <g id="Group_18" data-name="Group 18" clip-path="url(#clip-path)">
    <path id="Path_28" data-name="Path 28" d="M13.856,0H2.68A2.688,2.688,0,0,0,0,2.68v9.032a2.688,2.688,0,0,0,2.68,2.68H13.856a2.688,2.688,0,0,0,2.68-2.68V2.68A2.671,2.671,0,0,0,13.856,0" fill="#fff"/>
    <path id="Path_29" data-name="Path 29" d="M346.141,27.378a1.365,1.365,0,0,0-.456.188L341.5,29.978V36.2l4.208,2.412a1.593,1.593,0,0,0,2.2-.59,1.637,1.637,0,0,0,.214-.8V28.933a1.613,1.613,0,0,0-1.983-1.554" transform="translate(-323.628 -25.904)" fill="#fff"/>
  </g>
</svg>
